{
	"asset":{
		"generator":"Khronos glTF Blender I/O v3.6.27",
		"version":"2.0"
	},
	"scene":0,
	"scenes":[
		{
			"name":"Scene",
			"nodes":[
				0
			]
		}
	],
	"nodes":[
		{
			"mesh":0,
			"name":"Balloon",
			"rotation":[
				0.7071068286895752,
				0,
				0,
				0.7071068286895752
			]
		}
	],
	"materials":[
		{
			"doubleSided":true,
			"name":"lambert2SG",
			"pbrMetallicRoughness":{
				"baseColorFactor":[
					0.800000011920929,
					0.800000011920929,
					0.800000011920929,
					1
				],
				"metallicFactor":0,
				"roughnessFactor":0.5
			}
		},
		{
			"doubleSided":true,
			"name":"blinn1SG",
			"pbrMetallicRoughness":{
				"baseColorFactor":[
					0.800000011920929,
					0.800000011920929,
					0.800000011920929,
					1
				],
				"metallicFactor":0,
				"roughnessFactor":0.5
			}
		}
	],
	"meshes":[
		{
			"name":"Balloon",
			"primitives":[
				{
					"attributes":{
						"POSITION":0,
						"NORMAL":1,
						"TEXCOORD_0":2
					},
					"indices":3,
					"material":0
				},
				{
					"attributes":{
						"POSITION":4,
						"NORMAL":5,
						"TEXCOORD_0":6
					},
					"indices":7,
					"material":1
				}
			]
		}
	],
	"accessors":[
		{
			"bufferView":0,
			"componentType":5126,
			"count":9408,
			"max":[
				0.021443000063300133,
				0.05198200047016144,
				0.275191992521286
			],
			"min":[
				-0.02761800028383732,
				-0.13034500181674957,
				-0.45861899852752686
			],
			"type":"VEC3"
		},
		{
			"bufferView":1,
			"componentType":5126,
			"count":9408,
			"type":"VEC3"
		},
		{
			"bufferView":2,
			"componentType":5126,
			"count":9408,
			"type":"VEC2"
		},
		{
			"bufferView":3,
			"componentType":5123,
			"count":55668,
			"type":"SCALAR"
		},
		{
			"bufferView":4,
			"componentType":5126,
			"count":2333,
			"max":[
				0.443572998046875,
				0.4435740113258362,
				-0.3833959996700287
			],
			"min":[
				-0.4435740113258362,
				-0.4435740113258362,
				-1.5717639923095703
			],
			"type":"VEC3"
		},
		{
			"bufferView":5,
			"componentType":5126,
			"count":2333,
			"type":"VEC3"
		},
		{
			"bufferView":6,
			"componentType":5126,
			"count":2333,
			"type":"VEC2"
		},
		{
			"bufferView":7,
			"componentType":5123,
			"count":13200,
			"type":"SCALAR"
		}
	],
	"bufferViews":[
		{
			"buffer":0,
			"byteLength":112896,
			"byteOffset":0,
			"target":34962
		},
		{
			"buffer":0,
			"byteLength":112896,
			"byteOffset":112896,
			"target":34962
		},
		{
			"buffer":0,
			"byteLength":75264,
			"byteOffset":225792,
			"target":34962
		},
		{
			"buffer":0,
			"byteLength":111336,
			"byteOffset":301056,
			"target":34963
		},
		{
			"buffer":0,
			"byteLength":27996,
			"byteOffset":412392,
			"target":34962
		},
		{
			"buffer":0,
			"byteLength":27996,
			"byteOffset":440388,
			"target":34962
		},
		{
			"buffer":0,
			"byteLength":18664,
			"byteOffset":468384,
			"target":34962
		},
		{
			"buffer":0,
			"byteLength":26400,
			"byteOffset":487048,
			"target":34963
		}
	],
	"buffers":[
		{
			"byteLength":513448,
			"uri":"superstuff.bin"
		}
	]
}
